<svg width="91" height="48" viewBox="0 0 91 48" fill="none" xmlns="http://www.w3.org/2000/svg">
<path d="M17.5324 18.04C16.8284 17.9547 15.591 17.8373 13.8204 17.688C12.839 17.6453 12.0497 17.624 11.4524 17.624C10.6844 17.624 9.95904 17.6453 9.27637 17.688V12.728H10.0764C11.8257 12.728 13.639 12.8453 15.5164 13.08C16.1137 13.1653 16.7857 13.2827 17.5324 13.432V18.04ZM12.2524 28.504C12.2524 28.056 12.2204 27.736 12.1564 27.544C12.0924 27.3307 11.9857 27.192 11.8364 27.128C11.687 27.0427 11.431 26.9787 11.0684 26.936L7.13237 26.456C4.80704 26.2 3.23904 25.4427 2.42837 24.184C2.06571 23.6507 1.82037 23 1.69237 22.232C1.56437 21.464 1.50037 20.5253 1.50037 19.416C1.50037 17.048 2.10837 15.3413 3.32437 14.296C4.30571 13.4427 5.84171 12.9413 7.93237 12.792V19.224C7.93237 19.5013 7.94304 19.736 7.96437 19.928C7.98571 20.12 8.02837 20.2693 8.09237 20.376C8.15637 20.504 8.26304 20.6 8.41237 20.664C8.56171 20.7067 8.78571 20.7387 9.08437 20.76L13.5004 21.304C14.4177 21.432 15.1644 21.592 15.7404 21.784C16.3164 21.976 16.807 22.2747 17.2124 22.68C18.1724 23.6827 18.6524 25.464 18.6524 28.024C18.6524 30.7333 18.055 32.632 16.8604 33.72C16.327 34.2107 15.6764 34.5733 14.9084 34.808C14.1617 35.0213 13.2764 35.16 12.2524 35.224V28.504ZM10.5564 35.256C8.42304 35.256 6.43904 35.16 4.60437 34.968C3.51637 34.8613 2.69504 34.7547 2.14037 34.648V29.976C3.39904 30.0827 4.83904 30.1893 6.46037 30.296C7.48437 30.3387 8.20971 30.36 8.63637 30.36C9.78837 30.36 10.5457 30.328 10.9084 30.264V35.256H10.5564ZM30.1541 24.888C30.1541 24.3333 30.1328 23.9387 30.0901 23.704C30.0475 23.4693 29.9195 23.2987 29.7061 23.192C29.5141 23.0853 29.1515 23.0107 28.6181 22.968C28.2981 22.9467 27.6048 22.936 26.5381 22.936C25.5141 22.936 24.5648 22.9787 23.6901 23.064L21.9941 23.16V19C23.9995 18.616 26.1648 18.424 28.4901 18.424C30.2821 18.424 31.6795 18.552 32.6821 18.808C33.7061 19.064 34.4741 19.4693 34.9861 20.024C35.4341 20.536 35.7221 21.1867 35.8501 21.976C35.9995 22.7653 36.0741 23.864 36.0741 25.272V35H30.1541V24.888ZM25.4181 35.224C23.9461 35.224 22.8581 34.8187 22.1541 34.008C21.4501 33.176 21.0981 31.928 21.0981 30.264C21.0981 29.24 21.1728 28.4187 21.3221 27.8C21.4715 27.16 21.7275 26.6587 22.0901 26.296C22.4528 25.912 22.9541 25.6453 23.5941 25.496C24.2341 25.3253 25.0768 25.24 26.1221 25.24L28.8101 25.304V28.152H28.4901C27.9995 28.152 27.6795 28.1627 27.5301 28.184C27.1035 28.2053 26.8795 28.408 26.8581 28.792C26.8368 28.92 26.8261 29.1867 26.8261 29.592C26.8261 29.912 26.8368 30.1573 26.8581 30.328C26.9008 30.4987 26.9648 30.6373 27.0501 30.744C27.1568 30.8933 27.3168 30.9787 27.5301 31C27.8288 31.0427 28.1488 31.064 28.4901 31.064H28.8101V34.328C28.3408 34.6907 27.8395 34.9253 27.3061 35.032C26.7941 35.16 26.1648 35.224 25.4181 35.224ZM48.9939 27.288C48.9939 26.1573 48.9832 25.4107 48.9619 25.048C48.9192 24.4507 48.8659 24.056 48.8019 23.864C48.7165 23.6507 48.5672 23.5227 48.3539 23.48C48.1405 23.416 47.7992 23.384 47.3299 23.384H47.0099V19.384C47.8419 18.7653 48.9299 18.456 50.2739 18.456C52.1939 18.456 53.4845 19.0427 54.1459 20.216C54.4445 20.728 54.6472 21.3573 54.7539 22.104C54.8605 22.8293 54.9139 23.7253 54.9139 24.792V35H48.9939V27.288ZM39.7459 18.68H45.6659V35H39.7459V18.68Z" fill="#8AC732"/>
<path d="M70.7544 23.128C70.349 23.1067 69.7944 23.0533 69.0904 22.968C67.7677 22.84 66.701 22.776 65.8904 22.776H64.8344V18.424C66.349 18.424 67.789 18.5307 69.1544 18.744L70.7544 19.032V23.128ZM66.1144 30.04C66.1144 29.72 66.061 29.5173 65.9544 29.432C65.8477 29.3467 65.6237 29.2827 65.2824 29.24L61.8264 28.76C60.973 28.632 60.2797 28.4293 59.7464 28.152C59.2344 27.8747 58.8504 27.5013 58.5944 27.032C58.3384 26.6267 58.1677 26.136 58.0824 25.56C57.997 24.984 57.9544 24.2693 57.9544 23.416C57.9544 21.6667 58.477 20.3867 59.5224 19.576C60.397 18.936 61.7197 18.5627 63.4904 18.456V23.48C63.4904 23.8 63.533 24.0133 63.6184 24.12C63.7037 24.2053 63.9704 24.28 64.4184 24.344L68.2584 24.856C68.813 24.92 69.293 25.0373 69.6984 25.208C70.1037 25.3573 70.445 25.592 70.7224 25.912C71.341 26.5947 71.6504 27.9067 71.6504 29.848C71.6504 31.896 71.1277 33.3253 70.0824 34.136C69.165 34.8187 67.8424 35.1813 66.1144 35.224V30.04ZM64.7704 35.256C63.0637 35.2347 61.5704 35.128 60.2904 34.936L58.4664 34.648V30.552C59.3197 30.6373 60.4717 30.7227 61.9224 30.808C62.733 30.8507 63.309 30.872 63.6504 30.872H64.7704V35.256ZM83.0479 24.888C83.0479 24.3333 83.0265 23.9387 82.9839 23.704C82.9412 23.4693 82.8132 23.2987 82.5999 23.192C82.4079 23.0853 82.0452 23.0107 81.5119 22.968C81.1919 22.9467 80.4985 22.936 79.4319 22.936C78.4079 22.936 77.4585 22.9787 76.5839 23.064L74.8879 23.16V19C76.8932 18.616 79.0585 18.424 81.3839 18.424C83.1759 18.424 84.5732 18.552 85.5759 18.808C86.5999 19.064 87.3679 19.4693 87.8799 20.024C88.3279 20.536 88.6159 21.1867 88.7439 21.976C88.8932 22.7653 88.9679 23.864 88.9679 25.272V35H83.0479V24.888ZM78.3119 35.224C76.8399 35.224 75.7519 34.8187 75.0479 34.008C74.3439 33.176 73.9919 31.928 73.9919 30.264C73.9919 29.24 74.0665 28.4187 74.2159 27.8C74.3652 27.16 74.6212 26.6587 74.9839 26.296C75.3465 25.912 75.8479 25.6453 76.4879 25.496C77.1279 25.3253 77.9705 25.24 79.0159 25.24L81.7039 25.304V28.152H81.3839C80.8932 28.152 80.5732 28.1627 80.4239 28.184C79.9972 28.2053 79.7732 28.408 79.7519 28.792C79.7305 28.92 79.7199 29.1867 79.7199 29.592C79.7199 29.912 79.7305 30.1573 79.7519 30.328C79.7945 30.4987 79.8585 30.6373 79.9439 30.744C80.0505 30.8933 80.2105 30.9787 80.4239 31C80.7225 31.0427 81.0425 31.064 81.3839 31.064H81.7039V34.328C81.2345 34.6907 80.7332 34.9253 80.1999 35.032C79.6879 35.16 79.0585 35.224 78.3119 35.224Z" fill="black"/>
</svg>
